<?xml version="1.0" encoding="utf-8"?>
<!-- Generator: Adobe Illustrator 21.0.2, SVG Export Plug-In . SVG Version: 6.00 Build 0)  -->
<svg version="1.1" id="Layer_1" xmlns="http://www.w3.org/2000/svg" xmlns:xlink="http://www.w3.org/1999/xlink" x="0px" y="0px"
	 viewBox="0 0 70.9 82.3" style="enable-background:new 0 0 70.9 82.3;" xml:space="preserve">
<style type="text/css">
	.st0{fill:url(#SVGID_1_);}
	.st1{fill:url(#SVGID_2_);}
	.st2{fill:url(#SVGID_3_);}
	.st3{fill:url(#SVGID_4_);}
	.st4{fill:url(#SVGID_5_);}
	.st5{fill:url(#SVGID_6_);}
	.st6{fill:url(#SVGID_7_);}
	.st7{fill:url(#SVGID_8_);}
	.st8{fill:url(#SVGID_9_);}
	.st9{fill:url(#SVGID_10_);}
	.st10{fill:url(#SVGID_11_);}
	.st11{fill:url(#SVGID_12_);}
	.st12{fill:url(#SVGID_13_);}
	.st13{fill:url(#SVGID_14_);}
</style>
<title>a</title>
<linearGradient id="SVGID_1_" gradientUnits="userSpaceOnUse" x1="-26.2079" y1="66.0321" x2="118.7921" y2="-135.9679" gradientTransform="matrix(1 0 0 -1 0 84)">
	<stop  offset="0" style="stop-color:#FF1414"/>
	<stop  offset="5.378000e-02" style="stop-color:#FF2012"/>
	<stop  offset="0.222" style="stop-color:#FF400B"/>
	<stop  offset="0.3968" style="stop-color:#FF5806"/>
	<stop  offset="0.5789" style="stop-color:#FF6A03"/>
	<stop  offset="0.7731" style="stop-color:#FF7501"/>
	<stop  offset="1" style="stop-color:#FF7800"/>
</linearGradient>
<path class="st0" d="M17.6,74.6c-1,0-1.8,0.8-1.8,1.8v0.4h1.1v-0.4c0-0.4,0.3-0.7,0.7-0.7c0,0,0,0,0,0h0c0.4,0,0.7,0.3,0.7,0.7
	c0,0,0,0,0,0V77c0,0.2-0.1,0.3-0.2,0.5l-1.8,1.8c-0.3,0.3-0.5,0.8-0.5,1.3v1.8h3.6v-1.1h-2.5v-0.7c0-0.2,0.1-0.3,0.2-0.5l1.8-1.8
	c0.3-0.3,0.5-0.8,0.5-1.3v-0.8h0C19.4,75.3,18.6,74.6,17.6,74.6z"/>
<linearGradient id="SVGID_2_" gradientUnits="userSpaceOnUse" x1="-5.364" y1="80.9943" x2="139.636" y2="-121.0057" gradientTransform="matrix(1 0 0 -1 0 84)">
	<stop  offset="0" style="stop-color:#FF1414"/>
	<stop  offset="5.378000e-02" style="stop-color:#FF2012"/>
	<stop  offset="0.222" style="stop-color:#FF400B"/>
	<stop  offset="0.3968" style="stop-color:#FF5806"/>
	<stop  offset="0.5789" style="stop-color:#FF6A03"/>
	<stop  offset="0.7731" style="stop-color:#FF7501"/>
	<stop  offset="1" style="stop-color:#FF7800"/>
</linearGradient>
<path class="st1" d="M48.8,74.6c-1,0-1.8,0.8-1.8,1.8v0.4h1.1v-0.4c0-0.4,0.3-0.7,0.7-0.7c0,0,0,0,0,0h0c0.4,0,0.7,0.3,0.7,0.7
	c0,0,0,0,0,0v0.9c0,0.4-0.3,0.7-0.7,0.7c0,0,0,0,0,0h-0.4V79h0.4c0.4,0,0.7,0.3,0.7,0.7c0,0,0,0,0,0v0.9c0,0.4-0.3,0.7-0.7,0.7
	c0,0,0,0,0,0h0c-0.4,0-0.7-0.3-0.7-0.7c0,0,0,0,0,0v-0.4H47v0.4c0,1,0.8,1.8,1.8,1.8s1.8-0.8,1.8-1.8v-0.8c0-0.5-0.2-0.9-0.5-1.2
	c0.3-0.3,0.5-0.8,0.5-1.2v-0.8C50.6,75.4,49.8,74.6,48.8,74.6z"/>
<linearGradient id="SVGID_3_" gradientUnits="userSpaceOnUse" x1="-16.8205" y1="72.7706" x2="128.1795" y2="-129.2294" gradientTransform="matrix(1 0 0 -1 0 84)">
	<stop  offset="0" style="stop-color:#FF1414"/>
	<stop  offset="5.378000e-02" style="stop-color:#FF2012"/>
	<stop  offset="0.222" style="stop-color:#FF400B"/>
	<stop  offset="0.3968" style="stop-color:#FF5806"/>
	<stop  offset="0.5789" style="stop-color:#FF6A03"/>
	<stop  offset="0.7731" style="stop-color:#FF7501"/>
	<stop  offset="1" style="stop-color:#FF7800"/>
</linearGradient>
<path class="st2" d="M29.2,78.9h1.2c0.1-0.3,0.3-0.5,0.6-0.5h0c0.4,0,0.7,0.3,0.7,0.7c0,0,0,0,0,0v1.4c0,0.4-0.3,0.7-0.7,0.7
	c0,0,0,0,0,0h0c-0.4,0-0.7-0.3-0.7-0.7c0,0,0,0,0,0v-0.4h-1.1v0.4c0,1,0.8,1.8,1.8,1.8c1,0,1.8-0.8,1.8-1.8v-1.4
	c0-1-0.8-1.8-1.8-1.8c-0.2,0-0.5,0-0.7,0.1v-1.8h2.5v-1.1h-3.6V78.9z"/>
<linearGradient id="SVGID_4_" gradientUnits="userSpaceOnUse" x1="-13.8833" y1="74.879" x2="131.1167" y2="-127.121" gradientTransform="matrix(1 0 0 -1 0 84)">
	<stop  offset="0" style="stop-color:#FF1414"/>
	<stop  offset="5.378000e-02" style="stop-color:#FF2012"/>
	<stop  offset="0.222" style="stop-color:#FF400B"/>
	<stop  offset="0.3968" style="stop-color:#FF5806"/>
	<stop  offset="0.5789" style="stop-color:#FF6A03"/>
	<stop  offset="0.7731" style="stop-color:#FF7501"/>
	<stop  offset="1" style="stop-color:#FF7800"/>
</linearGradient>
<path class="st3" d="M33.6,78.9h1.2c0.1-0.3,0.3-0.5,0.6-0.5h0c0.4,0,0.7,0.3,0.7,0.7c0,0,0,0,0,0v1.4c0,0.4-0.3,0.7-0.7,0.7
	c0,0,0,0,0,0h0c-0.4,0-0.7-0.3-0.7-0.7c0,0,0,0,0,0v-0.4h-1.1v0.4c0,1,0.8,1.8,1.8,1.8c1,0,1.8-0.8,1.8-1.8v-1.4
	c0-1-0.8-1.8-1.8-1.8c-0.2,0-0.5,0-0.7,0.1v-1.8h2.5v-1.1h-3.6V78.9z"/>
<linearGradient id="SVGID_5_" gradientUnits="userSpaceOnUse" x1="-10.9464" y1="76.9872" x2="134.0536" y2="-125.0128" gradientTransform="matrix(1 0 0 -1 0 84)">
	<stop  offset="0" style="stop-color:#FF1414"/>
	<stop  offset="5.378000e-02" style="stop-color:#FF2012"/>
	<stop  offset="0.222" style="stop-color:#FF400B"/>
	<stop  offset="0.3968" style="stop-color:#FF5806"/>
	<stop  offset="0.5789" style="stop-color:#FF6A03"/>
	<stop  offset="0.7731" style="stop-color:#FF7501"/>
	<stop  offset="1" style="stop-color:#FF7800"/>
</linearGradient>
<path class="st4" d="M38.1,78.9h1.2c0.1-0.3,0.3-0.5,0.6-0.5h0c0.4,0,0.7,0.3,0.7,0.7c0,0,0,0,0,0v1.4c0,0.4-0.3,0.7-0.7,0.7
	c0,0,0,0,0,0h0c-0.4,0-0.7-0.3-0.7-0.7c0,0,0,0,0,0v-0.4h-1.1v0.4c0,1,0.8,1.8,1.8,1.8c1,0,1.8-0.8,1.8-1.8v-1.4
	c0-1-0.8-1.8-1.8-1.8c-0.2,0-0.5,0-0.7,0.1v-1.8h2.5v-1.1h-3.6V78.9z"/>
<linearGradient id="SVGID_6_" gradientUnits="userSpaceOnUse" x1="-2.4231" y1="83.1053" x2="142.5769" y2="-118.8947" gradientTransform="matrix(1 0 0 -1 0 84)">
	<stop  offset="0" style="stop-color:#FF1414"/>
	<stop  offset="5.378000e-02" style="stop-color:#FF2012"/>
	<stop  offset="0.222" style="stop-color:#FF400B"/>
	<stop  offset="0.3968" style="stop-color:#FF5806"/>
	<stop  offset="0.5789" style="stop-color:#FF6A03"/>
	<stop  offset="0.7731" style="stop-color:#FF7501"/>
	<stop  offset="1" style="stop-color:#FF7800"/>
</linearGradient>
<path class="st5" d="M53.2,74.6c-1,0-1.8,0.8-1.8,1.8v0.4h1.1v-0.4c0-0.4,0.3-0.7,0.7-0.7c0,0,0,0,0,0h0c0.4,0,0.7,0.3,0.7,0.7
	c0,0,0,0,0,0v0.9c0,0.4-0.3,0.7-0.7,0.7c0,0,0,0,0,0h-0.4V79h0.4c0.4,0,0.7,0.3,0.7,0.7c0,0,0,0,0,0v0.9c0,0.4-0.3,0.7-0.7,0.7
	c0,0,0,0,0,0h0c-0.4,0-0.7-0.3-0.7-0.7c0,0,0,0,0,0v-0.4h-1.1v0.4c0,1,0.8,1.8,1.8,1.8s1.8-0.8,1.8-1.8v-0.8c0-0.5-0.2-0.9-0.5-1.2
	c0.3-0.3,0.5-0.8,0.5-1.2v-0.8C55,75.4,54.2,74.6,53.2,74.6z"/>
<linearGradient id="SVGID_7_" gradientUnits="userSpaceOnUse" x1="0.5139" y1="85.2136" x2="145.5139" y2="-116.7864" gradientTransform="matrix(1 0 0 -1 0 84)">
	<stop  offset="0" style="stop-color:#FF1414"/>
	<stop  offset="5.378000e-02" style="stop-color:#FF2012"/>
	<stop  offset="0.222" style="stop-color:#FF400B"/>
	<stop  offset="0.3968" style="stop-color:#FF5806"/>
	<stop  offset="0.5789" style="stop-color:#FF6A03"/>
	<stop  offset="0.7731" style="stop-color:#FF7501"/>
	<stop  offset="1" style="stop-color:#FF7800"/>
</linearGradient>
<path class="st6" d="M57.7,74.6c-1,0-1.8,0.8-1.8,1.8v0.4H57v-0.4c0-0.4,0.3-0.7,0.7-0.7c0,0,0,0,0,0h0c0.4,0,0.7,0.3,0.7,0.7
	c0,0,0,0,0,0v0.9c0,0.4-0.3,0.7-0.7,0.7c0,0,0,0,0,0h-0.4V79h0.4c0.4,0,0.7,0.3,0.7,0.7c0,0,0,0,0,0v0.9c0,0.4-0.3,0.7-0.7,0.7
	c0,0,0,0,0,0h0c-0.4,0-0.7-0.3-0.7-0.7c0,0,0,0,0,0v-0.4h-1.1v0.4c0,1,0.8,1.8,1.8,1.8s1.8-0.8,1.8-1.8v-0.8c0-0.5-0.2-0.9-0.5-1.2
	c0.3-0.3,0.5-0.8,0.5-1.2v-0.8C59.5,75.4,58.7,74.6,57.7,74.6z"/>
<linearGradient id="SVGID_8_" gradientUnits="userSpaceOnUse" x1="-28.8565" y1="64.1309" x2="116.1435" y2="-137.8691" gradientTransform="matrix(1 0 0 -1 0 84)">
	<stop  offset="0" style="stop-color:#FF1414"/>
	<stop  offset="5.378000e-02" style="stop-color:#FF2012"/>
	<stop  offset="0.222" style="stop-color:#FF400B"/>
	<stop  offset="0.3968" style="stop-color:#FF5806"/>
	<stop  offset="0.5789" style="stop-color:#FF6A03"/>
	<stop  offset="0.7731" style="stop-color:#FF7501"/>
	<stop  offset="1" style="stop-color:#FF7800"/>
</linearGradient>
<path class="st7" d="M13.2,74.6c-1,0-1.8,0.8-1.8,1.8v4.2c0,1,0.8,1.8,1.8,1.8s1.8-0.8,1.8-1.8v-4.2C15,75.4,14.2,74.6,13.2,74.6z
	 M13.9,80.5c0,0.4-0.3,0.7-0.7,0.7c0,0,0,0,0,0h0c-0.4,0-0.7-0.3-0.7-0.7c0,0,0,0,0,0v-4.2c0-0.4,0.3-0.7,0.7-0.7c0,0,0,0,0,0h0
	c0.4,0,0.7,0.3,0.7,0.7c0,0,0,0,0,0L13.9,80.5z"/>
<linearGradient id="SVGID_9_" gradientUnits="userSpaceOnUse" x1="-22.9824" y1="68.3475" x2="122.0176" y2="-133.6525" gradientTransform="matrix(1 0 0 -1 0 84)">
	<stop  offset="0" style="stop-color:#FF1414"/>
	<stop  offset="5.378000e-02" style="stop-color:#FF2012"/>
	<stop  offset="0.222" style="stop-color:#FF400B"/>
	<stop  offset="0.3968" style="stop-color:#FF5806"/>
	<stop  offset="0.5789" style="stop-color:#FF6A03"/>
	<stop  offset="0.7731" style="stop-color:#FF7501"/>
	<stop  offset="1" style="stop-color:#FF7800"/>
</linearGradient>
<path class="st8" d="M22.1,74.6c-1,0-1.8,0.8-1.8,1.8v4.2c0,1,0.8,1.8,1.8,1.8s1.8-0.8,1.8-1.8v-4.2C23.9,75.4,23.1,74.6,22.1,74.6z
	 M22.8,80.5c0,0.4-0.3,0.7-0.7,0.7c0,0,0,0,0,0h0c-0.4,0-0.7-0.3-0.7-0.7c0,0,0,0,0,0v-4.2c0-0.4,0.3-0.7,0.7-0.7c0,0,0,0,0,0h0
	c0.4,0,0.7,0.3,0.7,0.7c0,0,0,0,0,0V80.5z"/>
<g>
	<linearGradient id="SVGID_10_" gradientUnits="userSpaceOnUse" x1="18.3069" y1="49.5357" x2="28.027" y2="63.0769">
		<stop  offset="0" style="stop-color:#FF1414"/>
		<stop  offset="5.378000e-02" style="stop-color:#FF2012"/>
		<stop  offset="0.222" style="stop-color:#FF400B"/>
		<stop  offset="0.3968" style="stop-color:#FF5806"/>
		<stop  offset="0.5789" style="stop-color:#FF6A03"/>
		<stop  offset="0.7731" style="stop-color:#FF7501"/>
		<stop  offset="1" style="stop-color:#FF7800"/>
	</linearGradient>
	<path class="st9" d="M20.3,49.5L20.3,49.5c-0.4,0-0.7,0.3-0.7,0.7v4.2c0,0.4,0.3,0.7,0.7,0.7h0c0.4,0,0.7-0.3,0.7-0.7v-4.2
		C20.9,49.8,20.6,49.5,20.3,49.5z"/>
	<linearGradient id="SVGID_11_" gradientUnits="userSpaceOnUse" x1="28.0952" y1="19.144" x2="65.6989" y2="71.5299">
		<stop  offset="0" style="stop-color:#FF1414"/>
		<stop  offset="5.378000e-02" style="stop-color:#FF2012"/>
		<stop  offset="0.222" style="stop-color:#FF400B"/>
		<stop  offset="0.3968" style="stop-color:#FF5806"/>
		<stop  offset="0.5789" style="stop-color:#FF6A03"/>
		<stop  offset="0.7731" style="stop-color:#FF7501"/>
		<stop  offset="1" style="stop-color:#FF7800"/>
	</linearGradient>
	<path class="st10" d="M35.7,19L35.7,19c-1.5,0-2.7,1.2-2.7,2.6v16.2c0,1.4,1.2,2.6,2.6,2.6h0.1c1.4,0,2.6-1.2,2.6-2.6V21.6
		C38.3,20.2,37.2,19,35.7,19z"/>
	<linearGradient id="SVGID_12_" gradientUnits="userSpaceOnUse" x1="23.5784" y1="49.2435" x2="28.3222" y2="55.8521">
		<stop  offset="0" style="stop-color:#FF1414"/>
		<stop  offset="5.378000e-02" style="stop-color:#FF2012"/>
		<stop  offset="0.222" style="stop-color:#FF400B"/>
		<stop  offset="0.3968" style="stop-color:#FF5806"/>
		<stop  offset="0.5789" style="stop-color:#FF6A03"/>
		<stop  offset="0.7731" style="stop-color:#FF7501"/>
		<stop  offset="1" style="stop-color:#FF7800"/>
	</linearGradient>
	<path class="st11" d="M24.7,49.5H24v2.2h0.7c0.4,0,0.7-0.3,0.7-0.7v-0.8C25.4,49.8,25.1,49.5,24.7,49.5z"/>
	<linearGradient id="SVGID_13_" gradientUnits="userSpaceOnUse" x1="31.3814" y1="49.3495" x2="41.6545" y2="63.661">
		<stop  offset="0" style="stop-color:#FF1414"/>
		<stop  offset="5.378000e-02" style="stop-color:#FF2012"/>
		<stop  offset="0.222" style="stop-color:#FF400B"/>
		<stop  offset="0.3968" style="stop-color:#FF5806"/>
		<stop  offset="0.5789" style="stop-color:#FF6A03"/>
		<stop  offset="0.7731" style="stop-color:#FF7501"/>
		<stop  offset="1" style="stop-color:#FF7800"/>
	</linearGradient>
	<path class="st12" d="M33.7,49.5L33.7,49.5L33.7,49.5l-0.7,0V55h0.7h0c0.4,0,0.7-0.3,0.7-0.7v-4.2C34.3,49.8,34,49.5,33.7,49.5z"/>
	<linearGradient id="SVGID_14_" gradientUnits="userSpaceOnUse" x1="6.1983" y1="-5.294" x2="151.1981" y2="196.7058">
		<stop  offset="0" style="stop-color:#FF1414"/>
		<stop  offset="5.378000e-02" style="stop-color:#FF2012"/>
		<stop  offset="0.222" style="stop-color:#FF400B"/>
		<stop  offset="0.3968" style="stop-color:#FF5806"/>
		<stop  offset="0.5789" style="stop-color:#FF6A03"/>
		<stop  offset="0.7731" style="stop-color:#FF7501"/>
		<stop  offset="1" style="stop-color:#FF7800"/>
	</linearGradient>
	<path class="st13" d="M35.4,0C15.9,0,0,15.9,0,35.4C0,55,15.9,70.9,35.4,70.9S70.9,55,70.9,35.4C70.9,15.9,55,0,35.4,0z M43.5,21.7
		c0-3.8,3.1-6.9,6.9-6.9c3.8,0,6.9,3.1,6.9,6.9v1.6H53v-1.6c0-1.4-1.2-2.6-2.6-2.6h-0.1c-1.4,0-2.6,1.2-2.6,2.6v16.2
		c0,1.4,1.2,2.6,2.6,2.6h0.1c1.4,0,2.6-1.2,2.6-2.6v-1.6h4.3v1.6c0,3.8-3.1,6.9-6.9,6.9c-3.8,0-6.9-3.1-6.9-6.9V21.7z M14,36.1h4.3
		v1.6c0,1.4,1.2,2.6,2.6,2.6H21c1.4,0,2.6-1.2,2.6-2.6v-1.3c0-0.7-0.3-1.4-0.8-1.8L16,27.8c-1.3-1.3-2-3-2-4.9v-1.7h0
		c0.2-3.6,3.2-6.5,6.9-6.5c3.8,0,6.9,3.1,6.9,6.9v1.6h-4.3v-1.6c0-1.4-1.2-2.6-2.6-2.6h-0.1c-1.4,0-2.6,1.2-2.6,2.6V23
		c0,0.7,0.3,1.4,0.8,1.8l6.8,6.8c1.3,1.3,2,3,2,4.9v1.7h0c-0.2,3.6-3.2,6.5-6.9,6.5c-3.8,0-6.9-3.1-6.9-6.9V36.1z M22.1,47
		c0,0.3-0.2,0.6-0.6,0.6c-0.3,0-0.6-0.2-0.6-0.6c0-0.3,0.2-0.6,0.6-0.6C21.8,46.4,22.1,46.7,22.1,47z M19.6,47
		c0,0.3-0.2,0.6-0.6,0.6c-0.3,0-0.6-0.2-0.6-0.6c0-0.3,0.2-0.6,0.6-0.6C19.3,46.4,19.6,46.7,19.6,47z M17.6,56.1h-1.1v-3.3h-1.4v3.3
		H14v-7.7h1.1v3.3h1.4v-3.3h1.1V56.1z M22.1,54.3c0,1-0.8,1.8-1.8,1.8s-1.8-0.8-1.8-1.8v-4.2c0-1,0.8-1.8,1.8-1.8s1.8,0.8,1.8,1.8
		V54.3z M25.6,56.1l-1.1-3.3H24v3.3h-1.1v-3.3v-1.1v-2.2v-1.1H24h0.7c1,0,1.8,0.8,1.8,1.8V51c0,0.7-0.4,1.3-0.9,1.6l1.2,3.5H25.6z
		 M28.3,44.7c-0.8,0-1.4-0.6-1.4-1.4c0-0.8,0.6-1.4,1.4-1.4c0.8,0,1.4,0.6,1.4,1.4C29.7,44,29.1,44.7,28.3,44.7z M35.4,54.3
		c0,1-0.8,1.8-1.8,1.8H33v0h-1.1v-7.7h0.3v0h1.5v0c1,0,1.8,0.8,1.8,1.8V54.3z M39.9,54.3c0,1-0.8,1.8-1.8,1.8c-1,0-1.8-0.8-1.8-1.8
		v-6h1.1v6c0,0.4,0.3,0.7,0.7,0.7h0c0.4,0,0.7-0.3,0.7-0.7v-6h1.1V54.3z M35.7,44.7L35.7,44.7c-3.8,0-6.9-3.1-6.9-6.9V21.7
		c0-3.8,3.1-6.9,6.9-6.9h0c3.8,0,6.9,3.1,6.9,6.9v16.1C42.6,41.6,39.5,44.7,35.7,44.7z M43.1,44.7c-0.8,0-1.4-0.6-1.4-1.4
		c0-0.8,0.6-1.4,1.4-1.4c0.8,0,1.4,0.6,1.4,1.4C44.6,44,43.9,44.7,43.1,44.7z M50.9,56.1h-1.1v-5l-1.1,3.2l-0.1,0.4h-0.9l-0.1-0.4
		l-1.1-3.2v5h-1.1v-7.7h1.1v0h0.2l0,0l1.6,4.3l1.6-4.3l0,0h0.2v0h1.1V56.1z M52.9,56.1h-1.1v-7.7h1.1V56.1z M57.3,52.8L57.3,52.8
		l0,1.5c0,1-0.8,1.8-1.8,1.8c-1,0-1.8-0.8-1.8-1.8v-4.2c0-1,0.8-1.8,1.8-1.8c1,0,1.8,0.8,1.8,1.8v0.4h-1.1v-0.4
		c0-0.4-0.3-0.7-0.7-0.7h0c-0.4,0-0.7,0.3-0.7,0.7v4.2c0,0.4,0.3,0.7,0.7,0.7h0c0.4,0,0.7-0.3,0.7-0.7v-1.5h-0.7v-1.1h1.8V52.8z
		 M57.9,44.7c-0.8,0-1.4-0.6-1.4-1.4c0-0.8,0.6-1.4,1.4-1.4c0.8,0,1.4,0.6,1.4,1.4C59.3,44,58.6,44.7,57.9,44.7z"/>
</g>
</svg>
