<?xml version="1.0" encoding="utf-8"?>
<!-- Generator: Adobe Illustrator 21.0.2, SVG Export Plug-In . SVG Version: 6.00 Build 0)  -->
<svg version="1.1" id="Layer_1" xmlns="http://www.w3.org/2000/svg" xmlns:xlink="http://www.w3.org/1999/xlink" x="0px" y="0px"
	 viewBox="0 0 70.9 70.9" style="enable-background:new 0 0 70.9 70.9;" xml:space="preserve">
<style type="text/css">
	.st0{fill:#FFFFFF;}
</style>
<title>a</title>
<g>
	<path class="st0" d="M20.3,49.5L20.3,49.5c-0.4,0-0.7,0.3-0.7,0.7v4.2c0,0.4,0.3,0.7,0.7,0.7h0c0.4,0,0.7-0.3,0.7-0.7v-4.2
		C20.9,49.8,20.6,49.5,20.3,49.5z"/>
	<path class="st0" d="M35.7,19L35.7,19c-1.5,0-2.7,1.2-2.7,2.6v16.2c0,1.4,1.2,2.6,2.6,2.6h0.1c1.4,0,2.6-1.2,2.6-2.6V21.6
		C38.3,20.2,37.2,19,35.7,19z"/>
	<path class="st0" d="M24.7,49.5H24v2.2h0.7c0.4,0,0.7-0.3,0.7-0.7v-0.8C25.4,49.8,25.1,49.5,24.7,49.5z"/>
	<path class="st0" d="M33.7,49.5L33.7,49.5L33.7,49.5l-0.7,0V55h0.7h0c0.4,0,0.7-0.3,0.7-0.7v-4.2C34.3,49.8,34,49.5,33.7,49.5z"/>
	<path class="st0" d="M35.4,0C15.9,0,0,15.9,0,35.4C0,55,15.9,70.9,35.4,70.9S70.9,55,70.9,35.4C70.9,15.9,55,0,35.4,0z M43.5,21.7
		c0-3.8,3.1-6.9,6.9-6.9c3.8,0,6.9,3.1,6.9,6.9v1.6H53v-1.6c0-1.4-1.2-2.6-2.6-2.6h-0.1c-1.4,0-2.6,1.2-2.6,2.6v16.2
		c0,1.4,1.2,2.6,2.6,2.6h0.1c1.4,0,2.6-1.2,2.6-2.6v-1.6h4.3v1.6c0,3.8-3.1,6.9-6.9,6.9c-3.8,0-6.9-3.1-6.9-6.9V21.7z M14,36.1h4.3
		v1.6c0,1.4,1.2,2.6,2.6,2.6H21c1.4,0,2.6-1.2,2.6-2.6v-1.3c0-0.7-0.3-1.4-0.8-1.8L16,27.8c-1.3-1.3-2-3-2-4.9v-1.7h0
		c0.2-3.6,3.2-6.5,6.9-6.5c3.8,0,6.9,3.1,6.9,6.9v1.6h-4.3v-1.6c0-1.4-1.2-2.6-2.6-2.6h-0.1c-1.4,0-2.6,1.2-2.6,2.6V23
		c0,0.7,0.3,1.4,0.8,1.8l6.8,6.8c1.3,1.3,2,3,2,4.9v1.7h0c-0.2,3.6-3.2,6.5-6.9,6.5c-3.8,0-6.9-3.1-6.9-6.9V36.1z M22.1,47
		c0,0.3-0.2,0.6-0.6,0.6c-0.3,0-0.6-0.2-0.6-0.6c0-0.3,0.2-0.6,0.6-0.6C21.8,46.4,22.1,46.7,22.1,47z M19.6,47
		c0,0.3-0.2,0.6-0.6,0.6c-0.3,0-0.6-0.2-0.6-0.6c0-0.3,0.2-0.6,0.6-0.6C19.3,46.4,19.6,46.7,19.6,47z M17.6,56.1h-1.1v-3.3h-1.4v3.3
		H14v-7.7h1.1v3.3h1.4v-3.3h1.1V56.1z M22.1,54.3c0,1-0.8,1.8-1.8,1.8s-1.8-0.8-1.8-1.8v-4.2c0-1,0.8-1.8,1.8-1.8s1.8,0.8,1.8,1.8
		V54.3z M25.6,56.1l-1.1-3.3H24v3.3h-1.1v-3.3v-1.1v-2.2v-1.1H24h0.7c1,0,1.8,0.8,1.8,1.8V51c0,0.7-0.4,1.3-0.9,1.6l1.2,3.5H25.6z
		 M28.3,44.7c-0.8,0-1.4-0.6-1.4-1.4c0-0.8,0.6-1.4,1.4-1.4c0.8,0,1.4,0.6,1.4,1.4C29.7,44,29.1,44.7,28.3,44.7z M35.4,54.3
		c0,1-0.8,1.8-1.8,1.8H33v0h-1.1v-7.7h0.3v0h1.5v0c1,0,1.8,0.8,1.8,1.8V54.3z M39.9,54.3c0,1-0.8,1.8-1.8,1.8c-1,0-1.8-0.8-1.8-1.8
		v-6h1.1v6c0,0.4,0.3,0.7,0.7,0.7h0c0.4,0,0.7-0.3,0.7-0.7v-6h1.1V54.3z M35.7,44.7L35.7,44.7c-3.8,0-6.9-3.1-6.9-6.9V21.7
		c0-3.8,3.1-6.9,6.9-6.9h0c3.8,0,6.9,3.1,6.9,6.9v16.1C42.6,41.6,39.5,44.7,35.7,44.7z M43.1,44.7c-0.8,0-1.4-0.6-1.4-1.4
		c0-0.8,0.6-1.4,1.4-1.4c0.8,0,1.4,0.6,1.4,1.4C44.6,44,43.9,44.7,43.1,44.7z M50.9,56.1h-1.1v-5l-1.1,3.2l-0.1,0.4h-0.9l-0.1-0.4
		l-1.1-3.2v5h-1.1v-7.7h1.1v0h0.2l0,0l1.6,4.3l1.6-4.3l0,0h0.2v0h1.1V56.1z M52.9,56.1h-1.1v-7.7h1.1V56.1z M57.3,52.8L57.3,52.8
		l0,1.5c0,1-0.8,1.8-1.8,1.8c-1,0-1.8-0.8-1.8-1.8v-4.2c0-1,0.8-1.8,1.8-1.8c1,0,1.8,0.8,1.8,1.8v0.4h-1.1v-0.4
		c0-0.4-0.3-0.7-0.7-0.7h0c-0.4,0-0.7,0.3-0.7,0.7v4.2c0,0.4,0.3,0.7,0.7,0.7h0c0.4,0,0.7-0.3,0.7-0.7v-1.5h-0.7v-1.1h1.8V52.8z
		 M57.9,44.7c-0.8,0-1.4-0.6-1.4-1.4c0-0.8,0.6-1.4,1.4-1.4c0.8,0,1.4,0.6,1.4,1.4C59.3,44,58.6,44.7,57.9,44.7z"/>
</g>
</svg>
