
<svg width="139px" height="27px" viewBox="0 0 139 27" version="1.1" xmlns="http://www.w3.org/2000/svg" xmlns:xlink="http://www.w3.org/1999/xlink">
    <!-- Generator: Sketch 46.2 (44496) - http://www.bohemiancoding.com/sketch -->
    <desc>Created with Sketch.</desc>
    <defs>
        <polygon id="path-1" points="0.6261 10 7.8101 10 7.8101 0.8294 0.6261 0.8294 0.6261 10"></polygon>
        <polygon id="path-3" points="0.3282 10 7.5112 10 7.5112 0.8294 0.3282 0.8294 0.3282 10"></polygon>
        <polygon id="path-5" points="0.1072 0.071 2.2842 0.071 2.2842 2.2487 0.1072 2.2487 0.1072 0.071"></polygon>
        <polygon id="path-7" points="2.70061065 3 0.391089655 3 0.391089655 0.794828679 2.70061065 0.794828679 2.70061065 3"></polygon>
        <polygon id="path-9" points="2.678 2.1805 2.678 0.5065 0.52698611 0.5065 0.52698611 2.1805 2.678 2.1805"></polygon>
    </defs>
    <g id="Page-1" stroke="none" stroke-width="1" fill="none" fill-rule="evenodd">
        <g transform="translate(0.000000, -1.000000)">
            <g id="Group-64" transform="translate(0.000000, 0.929200)">
                <path d="M9.6543,19.0557 C9.6543,18.2957 9.7923,17.3807 9.7923,17.3807 L6.3033,24.5127 C6.3033,24.5127 5.1983,24.5127 4.5943,23.5297 L1.7443,17.4317 C1.7443,17.4317 1.8823,18.2957 1.8823,19.0557 L1.8823,26.9657 C1.8823,26.9657 0.0003,26.9657 0.0003,25.9807 L0.0003,14.5827 L1.2603,14.5827 C1.3303,14.5827 2.2793,14.5477 2.7293,15.5147 L5.7333,21.9737 C6.2863,20.8177 8.7393,15.7227 9.2913,14.5827 C9.7923,14.5827 11.5373,14.5827 11.5373,15.5677 L11.5373,26.9657 C11.5373,26.9657 9.6543,26.9657 9.6543,25.9807 L9.6543,19.0557 Z" id="Fill-1" fill="#FEFEFE"></path>
                <g id="Group-5" transform="translate(13.000000, 17.000000)">
                    <mask id="mask-2" fill="white">
                        <use xlink:href="#path-1"></use>
                    </mask>
                    <g id="Clip-4"></g>
                    <path d="M5.9971,3.6104 C5.9971,2.8504 5.6341,2.2634 4.1661,2.2634 C2.6291,2.2634 1.4371,2.8324 1.4371,4.1624 C1.0231,3.5924 0.8681,3.1094 0.8681,2.6944 C0.8681,1.3474 2.6291,0.8294 4.1661,0.8294 C6.5321,0.8294 7.8101,1.8834 7.8101,3.6964 L7.8101,9.9314 C7.3791,9.7414 6.9641,9.6894 6.5671,9.6894 C5.7381,9.6894 4.9431,10.0004 3.9761,10.0004 C2.3011,10.0004 0.6261,9.3434 0.6261,7.3754 C0.6261,4.0934 5.3411,5.1124 5.9971,3.6104 L5.9971,3.6104 Z M6.0491,5.1644 C5.6861,6.2004 2.4221,5.5794 2.4221,7.3754 C2.4221,8.1344 2.9921,8.6704 4.2351,8.6704 C5.3231,8.6704 6.0491,8.2734 6.0491,8.2734 L6.0491,5.1644 Z" id="Fill-3" fill="#FEFEFE" mask="url(#mask-2)"></path>
                </g>
                <path d="M26.0601,17.7949 C28.0291,17.7949 29.3931,18.3309 29.3931,19.5049 C29.3931,19.9199 29.2211,20.4199 28.8061,20.9889 C28.8061,19.8679 27.7351,19.2979 26.1461,19.2979 C24.7821,19.2979 24.2811,19.6779 24.2811,20.5409 C24.2811,22.3549 29.8251,20.2129 29.8251,24.2889 C29.8251,25.9459 28.5991,26.9999 26.0601,26.9999 C24.0221,26.9999 22.5371,26.4129 22.5371,25.2039 C22.5371,24.7729 22.7271,24.2889 23.2111,23.7019 C23.2451,25.0659 24.5581,25.5319 26.0601,25.5319 C27.1481,25.5319 27.9771,25.1009 27.9771,24.2029 C27.9771,22.0439 22.4331,24.2889 22.4331,20.5929 C22.4331,18.7449 23.6941,17.7949 26.0601,17.7949" id="Fill-6" fill="#FEFEFE"></path>
                <path d="M39.168,26.7412 C39.168,26.7412 38.46,26.9142 38.166,26.9142 C35.99,26.9142 37.32,23.0452 33.365,22.5792 L33.365,26.9142 C33.365,26.9142 31.552,26.9142 31.552,25.9292 L31.552,13.7372 C31.552,13.7372 33.365,13.7372 33.365,14.7202 L33.365,21.1632 C34.66,21.0762 35.282,20.2992 36.128,18.6932 C36.353,18.2792 36.819,17.9162 37.683,17.9162 C37.959,17.9162 38.27,17.9682 38.546,18.0532 C37.717,19.2112 36.94,21.3702 35.334,21.7842 C38.114,22.5792 38.287,25.2202 39.168,26.7412" id="Fill-8" fill="#FEFEFE"></path>
                <path d="M42.1035,19.5566 L42.1035,26.9136 C42.1035,26.9136 40.2895,26.9136 40.2895,25.9116 L40.2895,17.8806 C40.7385,18.1056 41.1365,18.1926 41.4815,18.1926 C42.2245,18.1926 42.8975,17.8286 43.8825,17.8286 C45.0915,17.8286 46.0585,18.2796 46.0585,19.3316 C46.0585,19.9706 45.6615,20.4716 45.4195,20.7996 C45.4195,19.7816 44.5725,19.3146 43.5715,19.3146 C42.8285,19.3146 42.1035,19.5566 42.1035,19.5566" id="Fill-10" fill="#FEFEFE"></path>
                <path d="M54.5547,24.0986 C54.5547,25.9116 53.2937,26.9996 50.5997,26.9996 C47.9237,26.9996 46.6627,25.9116 46.6627,24.0986 L46.6627,20.7306 C46.6627,18.9176 47.9237,17.8286 50.5997,17.8286 C53.2937,17.8286 54.5547,18.9176 54.5547,20.7306 L54.5547,24.0986 Z M52.7417,20.9906 C52.7417,19.8686 52.3787,19.2106 50.5997,19.2106 C48.8387,19.2106 48.4757,19.8686 48.4757,20.9906 L48.4757,23.8396 C48.4757,24.9616 48.8387,25.6196 50.5997,25.6196 C52.3787,25.6196 52.7417,24.9616 52.7417,23.8396 L52.7417,20.9906 Z" id="Fill-12" fill="#FEFEFE"></path>
                <path d="M59.7349,17.7949 C61.7039,17.7949 63.0679,18.3309 63.0679,19.5049 C63.0679,19.9199 62.8959,20.4199 62.4809,20.9889 C62.4809,19.8679 61.4099,19.2979 59.8209,19.2979 C58.4569,19.2979 57.9559,19.6779 57.9559,20.5409 C57.9559,22.3549 63.4999,20.2129 63.4999,24.2889 C63.4999,25.9459 62.2739,26.9999 59.7349,26.9999 C57.6969,26.9999 56.2119,26.4129 56.2119,25.2039 C56.2119,24.7729 56.4019,24.2889 56.8859,23.7019 C56.9199,25.0659 58.2329,25.5319 59.7349,25.5319 C60.8229,25.5319 61.6519,25.1009 61.6519,24.2029 C61.6519,22.0439 56.1079,24.2889 56.1079,20.5929 C56.1079,18.7449 57.3689,17.7949 59.7349,17.7949" id="Fill-14" fill="#FEFEFE"></path>
                <path d="M72.584,24.1328 C72.584,25.9638 71.236,26.9998 68.732,26.9998 C67.282,26.9998 66.54,26.4828 65.227,26.3778 L65.227,9.7738 C65.331,9.7738 67.041,9.7558 67.041,10.9298 L67.041,17.3458 C67.041,18.1568 66.884,18.6418 66.884,18.6418 C66.884,18.6418 67.576,17.8288 69.338,17.8288 C71.081,17.8288 72.584,18.9008 72.584,20.6798 L72.584,24.1328 Z M67.041,25.2738 C67.144,25.3248 67.662,25.6188 68.697,25.6188 C70.305,25.6188 70.771,25.0478 70.771,23.8738 L70.771,20.9388 C70.771,19.7298 70.063,19.2108 69.112,19.2108 C68.077,19.2108 67.041,19.8508 67.041,20.7658 L67.041,25.2738 Z" id="Fill-16" fill="#FEFEFE"></path>
                <g id="Group-20" transform="translate(74.000000, 17.000000)">
                    <mask id="mask-4" fill="white">
                        <use xlink:href="#path-3"></use>
                    </mask>
                    <g id="Clip-19"></g>
                    <path d="M5.6992,3.6104 C5.6992,2.8504 5.3362,2.2634 3.8682,2.2634 C2.3312,2.2634 1.1392,2.8324 1.1392,4.1624 C0.7242,3.5924 0.5702,3.1094 0.5702,2.6944 C0.5702,1.3474 2.3312,0.8294 3.8682,0.8294 C6.2342,0.8294 7.5112,1.8834 7.5112,3.6964 L7.5112,9.9314 C7.0802,9.7414 6.6662,9.6894 6.2682,9.6894 C5.4392,9.6894 4.6442,10.0004 3.6782,10.0004 C2.0032,10.0004 0.3282,9.3434 0.3282,7.3754 C0.3282,4.0934 5.0422,5.1124 5.6992,3.6104 L5.6992,3.6104 Z M5.7512,5.1644 C5.3872,6.2004 2.1242,5.5794 2.1242,7.3754 C2.1242,8.1344 2.6942,8.6704 3.9362,8.6704 C5.0242,8.6704 5.7512,8.2734 5.7512,8.2734 L5.7512,5.1644 Z" id="Fill-18" fill="#FEFEFE" mask="url(#mask-4)"></path>
                </g>
                <path d="M85.4668,19.5566 L85.4668,26.9136 C85.4668,26.9136 83.6538,26.9136 83.6538,25.9116 L83.6538,17.8806 C84.1018,18.1056 84.4998,18.1926 84.8448,18.1926 C85.5878,18.1926 86.2608,17.8286 87.2448,17.8286 C88.4528,17.8286 89.4218,18.2796 89.4218,19.3316 C89.4218,19.9706 89.0248,20.4716 88.7818,20.7996 C88.7818,19.7816 87.9368,19.3146 86.9348,19.3146 C86.1918,19.3146 85.4668,19.5566 85.4668,19.5566" id="Fill-21" fill="#FEFEFE"></path>
                <path d="M96.0879,20.8008 C96.0879,19.8168 95.5879,19.2458 94.2049,19.2458 C93.1349,19.2458 92.3579,19.5388 92.3579,19.5388 L92.3579,26.9138 C92.3579,26.9138 90.5429,26.9138 90.5429,25.9298 L90.5429,17.8638 C90.7339,17.9678 91.2699,18.1928 91.8729,18.1928 C92.7199,18.1928 93.4969,17.8288 94.4459,17.8288 C96.1219,17.8288 97.8999,18.3998 97.8999,20.5408 L97.8999,26.9138 C97.8999,26.9138 96.0879,26.8788 96.0879,25.9298 L96.0879,20.8008 Z" id="Fill-23" fill="#FEFEFE"></path>
                <path d="M76.6504,14.7578 C76.6504,15.5608 76.0004,16.2098 75.1984,16.2098 C74.3964,16.2098 73.7464,15.5608 73.7464,14.7578 C73.7464,13.9558 74.3964,13.3058 75.1984,13.3058 C76.0004,13.3058 76.6504,13.9558 76.6504,14.7578" id="Fill-25" fill="#FEFEFE"></path>
                <path d="M58.5664,14.7578 C58.5664,15.5608 57.9164,16.2098 57.1144,16.2098 C56.3124,16.2098 55.6624,15.5608 55.6624,14.7578 C55.6624,13.9558 56.3124,13.3058 57.1144,13.3058 C57.9164,13.3058 58.5664,13.9558 58.5664,14.7578" id="Fill-27" fill="#FEFEFE"></path>
                <path d="M76.6504,6.9702 C76.6504,7.7722 76.0004,8.4222 75.1984,8.4222 C74.3964,8.4222 73.7464,7.7722 73.7464,6.9702 C73.7464,6.1682 74.3964,5.5182 75.1984,5.5182 C76.0004,5.5182 76.6504,6.1682 76.6504,6.9702" id="Fill-29" fill="#FEFEFE"></path>
                <path d="M58.5664,6.9702 C58.5664,7.7722 57.9164,8.4222 57.1144,8.4222 C56.3124,8.4222 55.6624,7.7722 55.6624,6.9702 C55.6624,6.1682 56.3124,5.5182 57.1144,5.5182 C57.9164,5.5182 58.5664,6.1682 58.5664,6.9702" id="Fill-31" fill="#FEFEFE"></path>
                <path d="M57.4409,10.958 C57.4409,11.559 56.9529,12.047 56.3519,12.047 C55.7509,12.047 55.2639,11.559 55.2639,10.958 C55.2639,10.357 55.7509,9.87 56.3519,9.87 C56.9529,9.87 57.4409,10.357 57.4409,10.958" id="Fill-33" fill="#FEFEFE"></path>
                <path d="M60.3442,4.0176 C60.3442,4.6186 59.8562,5.1066 59.2552,5.1066 C58.6542,5.1066 58.1672,4.6186 58.1672,4.0176 C58.1672,3.4166 58.6542,2.9286 59.2552,2.9286 C59.8562,2.9286 60.3442,3.4166 60.3442,4.0176" id="Fill-35" fill="#FEFEFE"></path>
                <path d="M74.2246,4.0176 C74.2246,4.6186 73.7376,5.1066 73.1366,5.1066 C72.5346,5.1066 72.0466,4.6186 72.0466,4.0176 C72.0466,3.4166 72.5346,2.9286 73.1366,2.9286 C73.7376,2.9286 74.2246,3.4166 74.2246,4.0176" id="Fill-37" fill="#FEFEFE"></path>
                <g id="Group-41" transform="translate(65.000000, 0.000000)">
                    <mask id="mask-6" fill="white">
                        <use xlink:href="#path-5"></use>
                    </mask>
                    <g id="Clip-40"></g>
                    <path d="M2.2842,1.1597 C2.2842,1.7607 1.7972,2.2487 1.1952,2.2487 C0.5942,2.2487 0.1072,1.7607 0.1072,1.1597 C0.1072,0.5587 0.5942,0.0707 1.1952,0.0707 C1.7972,0.0707 2.2842,0.5587 2.2842,1.1597" id="Fill-39" fill="#FEFEFE" mask="url(#mask-6)"></path>
                </g>
                <path d="M63.0264,1.8408 C63.0264,2.2948 62.6584,2.6638 62.2034,2.6638 C61.7504,2.6638 61.3814,2.2948 61.3814,1.8408 C61.3814,1.3868 61.7504,1.0178 62.2034,1.0178 C62.6584,1.0178 63.0264,1.3868 63.0264,1.8408" id="Fill-42" fill="#FEFEFE"></path>
                <path d="M70.9199,1.8408 C70.9199,2.2948 70.5509,2.6638 70.0969,2.6638 C69.6429,2.6638 69.2739,2.2948 69.2739,1.8408 C69.2739,1.3868 69.6429,1.0178 70.0969,1.0178 C70.5509,1.0178 70.9199,1.3868 70.9199,1.8408" id="Fill-44" fill="#FEFEFE"></path>
                <path d="M70.9199,4.6982 C70.9199,5.1532 70.5509,5.5212 70.0969,5.5212 C69.6429,5.5212 69.2739,5.1532 69.2739,4.6982 C69.2739,4.2442 69.6429,3.8762 70.0969,3.8762 C70.5509,3.8762 70.9199,4.2442 70.9199,4.6982" id="Fill-46" fill="#FEFEFE"></path>
                <path d="M73.5049,9.3706 C73.5049,9.8246 73.1359,10.1936 72.6819,10.1936 C72.2279,10.1936 71.8599,9.8246 71.8599,9.3706 C71.8599,8.9166 72.2279,8.5486 72.6819,8.5486 C73.1359,8.5486 73.5049,8.9166 73.5049,9.3706" id="Fill-48" fill="#FEFEFE"></path>
                <path d="M60.5313,9.3706 C60.5313,9.8246 60.1633,10.1936 59.7083,10.1936 C59.2553,10.1936 58.8863,9.8246 58.8863,9.3706 C58.8863,8.9166 59.2553,8.5486 59.7083,8.5486 C60.1633,8.5486 60.5313,8.9166 60.5313,9.3706" id="Fill-50" fill="#FEFEFE"></path>
                <path d="M63.0723,4.6982 C63.0723,5.1532 62.7033,5.5212 62.2493,5.5212 C61.7953,5.5212 61.4273,5.1532 61.4273,4.6982 C61.4273,4.2442 61.7953,3.8762 62.2493,3.8762 C62.7033,3.8762 63.0723,4.2442 63.0723,4.6982" id="Fill-52" fill="#FEFEFE"></path>
                <path d="M77.1279,10.958 C77.1279,11.559 76.6399,12.047 76.0389,12.047 C75.4379,12.047 74.9509,11.559 74.9509,10.958 C74.9509,10.357 75.4379,9.87 76.0389,9.87 C76.6399,9.87 77.1279,10.357 77.1279,10.958" id="Fill-54" fill="#FEFEFE"></path>
                <path d="M61.708,12.501 C61.708,12.791 61.473,13.026 61.183,13.026 C60.893,13.026 60.657,12.791 60.657,12.501 C60.657,12.211 60.893,11.976 61.183,11.976 C61.473,11.976 61.708,12.211 61.708,12.501" id="Fill-56" fill="#FEFEFE"></path>
                <path d="M72.1406,12.501 C72.1406,12.791 71.9066,13.026 71.6166,13.026 C71.3266,13.026 71.0896,12.791 71.0896,12.501 C71.0896,12.211 71.3266,11.976 71.6166,11.976 C71.9066,11.976 72.1406,12.211 72.1406,12.501" id="Fill-58" fill="#FEFEFE"></path>
                <path d="M63.1279,7.5542 C63.1279,7.8442 62.8919,8.0792 62.6029,8.0792 C62.3129,8.0792 62.0769,7.8442 62.0769,7.5542 C62.0769,7.2642 62.3129,7.0292 62.6029,7.0292 C62.8919,7.0292 63.1279,7.2642 63.1279,7.5542" id="Fill-60" fill="#FEFEFE"></path>
                <path d="M70.3857,7.5542 C70.3857,7.8442 70.1497,8.0792 69.8607,8.0792 C69.5707,8.0792 69.3347,7.8442 69.3347,7.5542 C69.3347,7.2642 69.5707,7.0292 69.8607,7.0292 C70.1497,7.0292 70.3857,7.2642 70.3857,7.5542" id="Fill-62" fill="#FEFEFE"></path>
            </g>
            <path d="M121.2984,1.552 L121.2594,2.242 L120.4014,2.551 L119.9164,2.049 L119.6204,2.155 L121.2544,3.861 L121.4564,3.788 L121.5954,1.446 L121.2984,1.552 Z M120.6114,2.765 L121.2394,2.539 L121.2004,3.379 L120.6114,2.765 Z" id="Fill-65" fill="#FEFEFE"></path>
            <path d="M118.0674,3.5176 C118.0924,3.5306 118.1164,3.5436 118.1394,3.5566 C118.3034,3.6426 118.4264,3.7006 118.5104,3.7316 C118.6054,3.7656 118.6944,3.7846 118.7764,3.7896 C118.6984,3.8866 118.6544,3.9906 118.6464,4.1006 C118.6384,4.2106 118.6654,4.3196 118.7284,4.4276 C118.8204,4.5866 118.9474,4.6796 119.1124,4.7096 C119.2764,4.7376 119.4514,4.6986 119.6394,4.5896 L120.1044,4.3206 L119.0294,2.4646 L118.7634,2.6186 L119.2314,3.4266 L119.1624,3.4666 C119.0754,3.5166 119.0084,3.5426 118.9594,3.5436 C118.9114,3.5456 118.8514,3.5366 118.7794,3.5176 C118.7084,3.4996 118.6224,3.4676 118.5234,3.4236 L118.3504,3.3306 L118.1894,3.2426 L118.0954,3.1996 C118.0814,3.1936 118.0724,3.1896 118.0664,3.1856 L117.9154,3.1106 L117.9154,3.1116 L117.9144,3.1106 L117.5984,3.2946 L117.7744,3.3696 C117.8434,3.4006 117.9414,3.4496 118.0674,3.5176 M119.0104,3.9166 C119.0474,3.8636 119.1324,3.7996 119.2674,3.7216 L119.3684,3.6626 L119.7084,4.2476 L119.6284,4.2946 C119.4984,4.3696 119.3994,4.4146 119.3314,4.4276 C119.2644,4.4406 119.2014,4.4326 119.1434,4.4026 C119.0844,4.3736 119.0384,4.3296 119.0044,4.2706 C118.9704,4.2116 118.9534,4.1506 118.9544,4.0886 C118.9554,4.0256 118.9744,3.9686 119.0104,3.9166" id="Fill-66" fill="#FEFEFE"></path>
            <polygon id="Fill-68" fill="#FEFEFE" points="117.5664 6.0601 117.1184 4.4861 118.5654 5.2531 118.8054 5.0591 116.7334 3.9641 116.6804 4.0071 117.3284 6.2521"></polygon>
            <path d="M115.1982,6.2529 C115.3772,6.4149 115.6112,6.4519 115.9032,6.3619 L116.1642,6.2809 C116.2812,6.2439 116.3762,6.2269 116.4492,6.2309 C116.5212,6.2329 116.5832,6.2569 116.6312,6.2999 C116.6842,6.3489 116.7072,6.4129 116.6982,6.4919 C116.6892,6.5709 116.6502,6.6479 116.5842,6.7219 C116.4642,6.8539 116.2972,6.9269 116.0832,6.9419 L116.3422,7.1769 C116.5162,7.1329 116.6642,7.0449 116.7852,6.9119 C116.9112,6.7739 116.9732,6.6249 116.9742,6.4679 C116.9742,6.3099 116.9132,6.1739 116.7882,6.0599 C116.7042,5.9849 116.6092,5.9409 116.5042,5.9279 C116.3972,5.9159 116.2622,5.9339 116.0982,5.9829 L115.8372,6.0609 C115.6242,6.1219 115.4692,6.1089 115.3722,6.0209 C115.3112,5.9659 115.2842,5.8969 115.2872,5.8139 C115.2902,5.7299 115.3232,5.6519 115.3872,5.5809 C115.5352,5.4199 115.7422,5.3479 116.0092,5.3659 L115.7192,5.1039 C115.5072,5.1459 115.3292,5.2449 115.1852,5.4019 C115.0612,5.5379 115.0012,5.6859 115.0032,5.8429 C115.0062,6.0009 115.0702,6.1379 115.1982,6.2529" id="Fill-69" fill="#FEFEFE"></path>
            <polygon id="Fill-71" fill="#FEFEFE" points="114.5039 7.9902 114.7309 8.1442 115.2019 7.4522 115.6959 7.7902 115.2249 8.4822 115.4509 8.6352 116.0959 7.6902 114.3219 6.4812 114.1499 6.7352 114.9769 7.2982"></polygon>
            <path d="M113.3633,10.519 C113.6343,10.639 113.9013,10.65 114.1653,10.556 C114.1823,10.549 114.2013,10.544 114.2173,10.537 C114.4993,10.42 114.7073,10.21 114.8413,9.907 C114.9753,9.604 114.9913,9.311 114.8863,9.028 C114.7843,8.744 114.5853,8.538 114.2933,8.408 C114.0283,8.29 113.7653,8.277 113.5093,8.367 C113.4893,8.374 113.4683,8.38 113.4503,8.388 C113.1733,8.5 112.9683,8.705 112.8383,9 C112.7013,9.31 112.6813,9.608 112.7813,9.896 C112.8803,10.183 113.0743,10.391 113.3633,10.519 M114.6043,9.153 C114.6803,9.36 114.6703,9.576 114.5703,9.8 C114.4743,10.013 114.3253,10.162 114.1183,10.245 C113.9113,10.329 113.7043,10.325 113.4973,10.233 C113.2843,10.138 113.1373,9.985 113.0593,9.776 C112.9813,9.566 112.9913,9.351 113.0883,9.133 C113.1843,8.915 113.3353,8.764 113.5403,8.682 C113.7443,8.599 113.9533,8.605 114.1643,8.699 C114.3823,8.795 114.5293,8.947 114.6043,9.153" id="Fill-72" fill="#FEFEFE"></path>
            <polygon id="Fill-74" fill="#FEFEFE" points="113.9238 12.9502 112.2908 12.6212 114.2088 11.5312 114.2588 11.2872 112.1538 10.8632 112.0978 11.1462 113.7168 11.4732 111.8148 12.5532 111.7628 12.8122 113.8648 13.2362"></polygon>
            <path d="M112.3691,15.5737 C112.5011,15.6267 112.6391,15.6527 112.7821,15.6517 C112.9821,15.6497 113.1671,15.5967 113.3361,15.4947 C113.5041,15.3917 113.6311,15.2567 113.7171,15.0847 C113.8021,14.9137 113.8431,14.6827 113.8401,14.3907 L113.8311,13.6677 L111.6891,13.6927 L111.6971,14.3707 C111.7001,14.5617 111.7061,14.6907 111.7181,14.7577 C111.7301,14.8257 111.7521,14.8997 111.7851,14.9807 C111.8381,15.1167 111.9171,15.2377 112.0211,15.3427 C112.1211,15.4427 112.2371,15.5197 112.3691,15.5737 M111.9721,14.3897 L111.9661,13.9967 L113.5611,13.9777 L113.5661,14.3617 C113.5681,14.5087 113.5641,14.6157 113.5531,14.6827 C113.5431,14.7497 113.5201,14.8197 113.4861,14.8947 C113.4521,14.9697 113.4091,15.0357 113.3551,15.0947 C113.2121,15.2507 113.0251,15.3307 112.7951,15.3337 C112.5601,15.3367 112.3651,15.2627 112.2101,15.1127 C112.1621,15.0667 112.1221,15.0147 112.0891,14.9587 C112.0571,14.9017 112.0291,14.8317 112.0071,14.7467 C111.9851,14.6627 111.9731,14.5437 111.9721,14.3897" id="Fill-75" fill="#FEFEFE"></path>
            <polygon id="Fill-77" fill="#FEFEFE" points="112.1611 16.7114 112.8141 16.5854 112.9811 17.4474 113.2521 17.3954 113.0851 16.5324 113.7271 16.4074 113.8991 17.3014 114.1681 17.2504 113.9371 16.0554 111.8341 16.4614 112.0701 17.6844 112.3391 17.6334"></polygon>
            <polygon id="Fill-78" fill="#FEFEFE" points="114.8584 19.2358 113.3034 19.8348 114.3384 17.8858 114.2504 17.6528 112.2474 18.4238 112.3494 18.6918 113.8914 18.0998 112.8654 20.0318 112.9604 20.2788 114.9624 19.5088"></polygon>
            <path d="M115.1895,21.3872 C115.0825,21.3702 114.9865,21.3932 114.8995,21.4562 C114.8135,21.5182 114.7615,21.6032 114.7435,21.7102 C114.7265,21.8182 114.7495,21.9132 114.8115,22.0002 C114.8745,22.0862 114.9595,22.1382 115.0665,22.1572 C115.1725,22.1722 115.2695,22.1512 115.3565,22.0862 C115.4445,22.0242 115.4965,21.9392 115.5135,21.8322 C115.5305,21.7262 115.5065,21.6292 115.4435,21.5412 C115.3805,21.4552 115.2945,21.4052 115.1895,21.3872" id="Fill-79" fill="#FEFEFE"></path>
            <path d="M117.8047,23.0855 L115.7127,24.1475 L115.9537,24.3495 L116.5697,24.0355 L117.2697,24.6215 L117.0787,25.2925 L117.3217,25.4935 L117.9707,23.2245 L117.8047,23.0855 Z M116.8367,23.9025 L117.5817,23.5135 L117.3477,24.3305 L116.8367,23.9025 Z" id="Fill-81" fill="#FEFEFE"></path>
            <path d="M119.418,24.2534 L118.951,23.9864 L117.885,25.8504 L118.153,26.0024 L118.616,25.1914 L118.687,25.2324 C118.773,25.2814 118.829,25.3264 118.855,25.3674 C118.88,25.4084 118.902,25.4654 118.923,25.5364 C118.942,25.6084 118.958,25.6984 118.969,25.8074 L118.976,26.0024 L118.981,26.1864 L118.991,26.2894 C118.992,26.3034 118.993,26.3164 118.993,26.3204 L119.005,26.4904 L119.322,26.6714 L119.3,26.4824 C119.291,26.4064 119.284,26.2964 119.28,26.1534 C119.273,25.9264 119.26,25.7644 119.242,25.6634 C119.225,25.5644 119.196,25.4764 119.159,25.4034 C119.283,25.4214 119.396,25.4074 119.494,25.3594 C119.593,25.3114 119.674,25.2324 119.736,25.1234 C119.827,24.9654 119.844,24.8074 119.787,24.6504 C119.73,24.4934 119.606,24.3614 119.418,24.2534 M119.462,24.9634 C119.427,25.0244 119.383,25.0684 119.328,25.1004 C119.274,25.1294 119.215,25.1434 119.151,25.1364 C119.087,25.1304 118.989,25.0894 118.855,25.0134 L118.752,24.9544 L119.088,24.3654 L119.168,24.4114 C119.299,24.4864 119.387,24.5504 119.433,24.6024 C119.479,24.6534 119.502,24.7124 119.506,24.7774 C119.51,24.8424 119.495,24.9054 119.462,24.9634" id="Fill-82" fill="#FEFEFE"></path>
            <polygon id="Fill-84" fill="#FEFEFE" points="120.3354 27.0841 120.3994 27.1071 122.0164 25.4231 121.7314 25.3131 120.5934 26.4891 120.5314 24.8531 120.2434 24.7401"></polygon>
            <path d="M122.3779,25.6226 C122.2399,25.6996 122.1539,25.8216 122.1189,25.9866 C122.0959,26.0986 122.1059,26.2016 122.1479,26.2996 C122.1909,26.3956 122.2739,26.5046 122.3989,26.6226 L122.5969,26.8096 C122.7569,26.9636 122.8219,27.1036 122.7949,27.2316 C122.7769,27.3106 122.7319,27.3696 122.6579,27.4086 C122.5849,27.4476 122.5009,27.4586 122.4059,27.4376 C122.1929,27.3926 122.0269,27.2496 121.9089,27.0096 L121.8269,27.3916 C121.9709,27.5546 122.1459,27.6576 122.3539,27.7016 C122.5329,27.7406 122.6899,27.7206 122.8259,27.6396 C122.9619,27.5586 123.0469,27.4336 123.0829,27.2656 C123.1339,27.0286 123.0469,26.8086 122.8229,26.6006 L122.6229,26.4166 C122.5319,26.3346 122.4709,26.2606 122.4369,26.1946 C122.4009,26.1306 122.3919,26.0656 122.4049,26.0036 C122.4199,25.9326 122.4649,25.8816 122.5369,25.8486 C122.6089,25.8156 122.6949,25.8096 122.7939,25.8326 C122.9679,25.8686 123.1139,25.9766 123.2349,26.1546 L123.3089,25.8126 C123.1839,25.6846 123.0319,25.6006 122.8569,25.5626 C122.6749,25.5236 122.5149,25.5436 122.3779,25.6226" id="Fill-85" fill="#FEFEFE"></path>
            <polygon id="Fill-87" fill="#FEFEFE" points="123.7203 27.9076 124.0263 27.9296 124.0973 26.9316 124.9313 26.9916 124.9513 26.7186 124.1173 26.6596 124.1593 26.0616 124.9933 26.1216 125.0133 25.8486 123.8723 25.7686"></polygon>
            <g id="Group-90" transform="translate(125.000000, 24.929200)">
                <mask id="mask-8" fill="white">
                    <use xlink:href="#path-7"></use>
                </mask>
                <g id="Clip-89"></g>
                <path d="M2.2764,1.0244 C2.0644,0.8634 1.8184,0.7874 1.5404,0.7954 C1.5004,0.7954 1.4594,0.7984 1.4184,0.8024 C1.3774,0.8074 1.3374,0.8134 1.2974,0.8224 C1.0244,0.8764 0.8034,1.0034 0.6344,1.2074 C0.4664,1.4104 0.3854,1.6464 0.3914,1.9164 C0.3924,1.9554 0.3944,1.9944 0.4004,2.0334 C0.4334,2.3434 0.5704,2.5894 0.8064,2.7714 C1.0134,2.9304 1.2544,3.0064 1.5264,3.0004 C1.5654,2.9984 1.6034,2.9964 1.6434,2.9914 C1.9814,2.9544 2.2494,2.8204 2.4474,2.5884 C2.6214,2.3864 2.7054,2.1544 2.7004,1.8874 C2.6994,1.8494 2.6964,1.8104 2.6924,1.7714 C2.6574,1.4574 2.5174,1.2094 2.2764,1.0244 M1.6324,2.7094 C1.3964,2.7354 1.1914,2.6794 1.0154,2.5454 C0.8404,2.4114 0.7414,2.2274 0.7154,1.9984 C0.6904,1.7604 0.7464,1.5574 0.8864,1.3864 C1.0264,1.2174 1.2184,1.1194 1.4634,1.0914 C1.6944,1.0674 1.8984,1.1224 2.0754,1.2574 C2.2514,1.3934 2.3514,1.5754 2.3774,1.8004 C2.4034,2.0334 2.3444,2.2354 2.2034,2.4094 C2.0604,2.5824 1.8714,2.6814 1.6324,2.7094" id="Fill-88" fill="#FEFEFE" mask="url(#mask-8)"></path>
            </g>
            <polygon id="Fill-91" fill="#FEFEFE" points="129.5145 24.9988 130.0485 26.5748 128.1445 25.4628 127.9085 25.5428 128.5975 27.5738 128.8705 27.4808 128.3405 25.9188 130.2285 27.0208 130.4775 26.9358 129.7895 24.9048"></polygon>
            <path d="M132.4268,24.6284 C132.3238,24.4554 132.1868,24.3224 132.0128,24.2274 C131.8398,24.1324 131.6568,24.0914 131.4668,24.1034 C131.2768,24.1144 131.0548,24.1964 130.8048,24.3454 L130.1828,24.7154 L131.2808,26.5564 L131.8638,26.2084 C132.0278,26.1104 132.1348,26.0404 132.1878,25.9964 C132.2398,25.9524 132.2928,25.8974 132.3458,25.8274 C132.4388,25.7124 132.5028,25.5834 132.5398,25.4414 C132.5768,25.3044 132.5858,25.1644 132.5668,25.0244 C132.5468,24.8834 132.4998,24.7514 132.4268,24.6284 M131.7418,25.9624 L131.4048,26.1644 L130.5868,24.7934 L130.9168,24.5964 C131.0428,24.5224 131.1378,24.4714 131.2008,24.4464 C131.2638,24.4224 131.3358,24.4064 131.4178,24.3994 C131.4998,24.3904 131.5788,24.3944 131.6558,24.4114 C131.8648,24.4564 132.0278,24.5784 132.1458,24.7764 C132.2648,24.9774 132.2988,25.1834 132.2478,25.3924 C132.2328,25.4574 132.2068,25.5184 132.1748,25.5754 C132.1438,25.6324 132.0948,25.6904 132.0328,25.7524 C131.9698,25.8154 131.8738,25.8844 131.7418,25.9624" id="Fill-92" fill="#FEFEFE"></path>
            <polygon id="Fill-94" fill="#FEFEFE" points="133.6533 24.6323 133.2173 24.1293 133.8793 23.5543 133.6993 23.3473 133.0363 23.9223 132.6083 23.4283 133.2943 22.8333 133.1153 22.6263 132.1973 23.4233 133.6003 25.0403 134.5403 24.2243 134.3613 24.0173"></polygon>
            <polygon id="Fill-95" fill="#FEFEFE" points="134.4746 21.0347 135.7726 22.0757 133.5706 22.1627 133.4146 22.3557 135.0866 23.6977 135.2666 23.4727 133.9806 22.4397 136.1636 22.3537 136.3296 22.1477 134.6566 20.8067"></polygon>
            <path d="M136.6934,19.1646 C136.5934,19.1206 136.4944,19.1176 136.3944,19.1566 C136.2954,19.1946 136.2224,19.2646 136.1774,19.3626 C136.1344,19.4596 136.1324,19.5606 136.1724,19.6596 C136.2114,19.7616 136.2794,19.8326 136.3774,19.8766 C136.4734,19.9186 136.5734,19.9236 136.6744,19.8846 C136.7764,19.8456 136.8474,19.7776 136.8904,19.6806 C136.9344,19.5816 136.9364,19.4816 136.8994,19.3826 C136.8604,19.2806 136.7924,19.2086 136.6934,19.1646" id="Fill-96" fill="#FEFEFE"></path>
            <path d="M136.3653,16.3354 L136.3283,16.5484 L138.2963,17.8254 L138.3513,17.5144 L137.7713,17.1404 L137.9263,16.2414 L138.6013,16.0694 L138.6553,15.7574 L136.3653,16.3354 Z M136.8103,16.5274 L137.6373,16.3194 L137.5213,16.9754 L136.8103,16.5274 Z" id="Fill-98" fill="#FEFEFE"></path>
            <g id="Group-101" transform="translate(136.000000, 12.929200)">
                <mask id="mask-10" fill="white">
                    <use xlink:href="#path-9"></use>
                </mask>
                <g id="Clip-100"></g>
                <path d="M1.834,1.0835 C1.757,1.1505 1.695,1.2175 1.651,1.2865 C1.622,1.2135 1.583,1.1525 1.536,1.1005 C1.508,1.0705 1.479,1.0425 1.444,1.0195 C1.43,1.0105 1.415,1.0025 1.399,0.9945 C1.317,0.9505 1.226,0.9275 1.12,0.9285 C0.936,0.9305 0.792,0.9955 0.685,1.1245 C0.579,1.2525 0.526,1.4245 0.527,1.6425 L0.532,2.1805 L2.679,2.1605 L2.676,1.8535 L1.743,1.8625 L1.741,1.7825 C1.74,1.6815 1.752,1.6105 1.774,1.5675 C1.797,1.5245 1.834,1.4765 1.886,1.4235 C1.938,1.3705 2.007,1.3115 2.095,1.2475 L2.262,1.1425 L2.418,1.0465 L2.502,0.9855 C2.514,0.9765 2.522,0.9705 2.527,0.9675 L2.668,0.8725 L2.664,0.5065 L2.512,0.6215 C2.451,0.6675 2.359,0.7275 2.238,0.8035 C2.046,0.9245 1.911,1.0175 1.834,1.0835 L1.834,1.0835 Z M0.792,1.8705 L0.791,1.7785 C0.79,1.6275 0.8,1.5195 0.821,1.4545 C0.844,1.3895 0.882,1.3385 0.936,1.3025 C0.99,1.2655 1.052,1.2475 1.12,1.2465 C1.188,1.2465 1.249,1.2625 1.304,1.2935 C1.357,1.3255 1.398,1.3705 1.425,1.4275 C1.452,1.4855 1.467,1.5915 1.468,1.7475 L1.469,1.8645 L0.792,1.8705 Z" id="Fill-99" fill="#FEFEFE" mask="url(#mask-10)"></path>
            </g>
            <polygon id="Fill-102" fill="#FEFEFE" points="136.2771 12.0307 137.8661 12.4267 136.4791 13.2997 136.5281 13.6047 138.5101 12.3527 138.4991 12.2847 136.2291 11.7297"></polygon>
            <path d="M137.2871,9.8853 C137.0571,9.9603 136.9081,10.1463 136.8421,10.4433 L136.7821,10.7093 C136.7571,10.8293 136.7251,10.9193 136.6851,10.9823 C136.6461,11.0443 136.5971,11.0853 136.5361,11.1053 C136.4661,11.1273 136.3981,11.1153 136.3351,11.0683 C136.2701,11.0213 136.2241,10.9503 136.1911,10.8553 C136.1371,10.6853 136.1551,10.5043 136.2501,10.3113 L135.9181,10.4193 C135.8691,10.5923 135.8721,10.7643 135.9281,10.9343 C135.9851,11.1123 136.0831,11.2413 136.2191,11.3203 C136.3551,11.3993 136.5041,11.4123 136.6651,11.3603 C136.7711,11.3253 136.8561,11.2653 136.9201,11.1793 C136.9831,11.0933 137.0351,10.9673 137.0731,10.8013 L137.1361,10.5353 C137.1881,10.3203 137.2771,10.1923 137.4021,10.1513 C137.4781,10.1263 137.5531,10.1363 137.6241,10.1803 C137.6941,10.2243 137.7451,10.2923 137.7741,10.3833 C137.8431,10.5913 137.8021,10.8063 137.6531,11.0293 L138.0241,10.9083 C138.0951,10.7033 138.0971,10.4993 138.0301,10.2973 C137.9741,10.1223 137.8771,9.9963 137.7381,9.9203 C137.6001,9.8433 137.4511,9.8323 137.2871,9.8853" id="Fill-103" fill="#FEFEFE"></path>
            <polygon id="Fill-105" fill="#FEFEFE" points="135.876 8.543 136.243 9.295 135.705 9.558 135.338 8.806 135.092 8.926 135.594 9.954 137.523 9.013 137.387 8.736 136.489 9.175 136.122 8.423"></polygon>
            <path d="M134.2432,6.417 C134.1462,6.547 134.0842,6.695 134.0562,6.86 C134.0532,6.879 134.0482,6.898 134.0462,6.917 C134.0412,6.955 134.0382,6.992 134.0372,7.03 C134.0302,7.29 134.1132,7.538 134.2852,7.771 C134.4832,8.037 134.7312,8.196 135.0292,8.246 C135.3272,8.295 135.6052,8.225 135.8622,8.034 C136.1132,7.848 136.2582,7.606 136.2972,7.31 C136.3012,7.273 136.3042,7.236 136.3062,7.199 C136.3142,6.944 136.2342,6.702 136.0662,6.475 C135.8642,6.202 135.6142,6.038 135.3142,5.982 C135.0142,5.926 134.7382,5.993 134.4832,6.181 C134.3882,6.251 134.3072,6.33 134.2432,6.417 M135.8272,6.626 C135.9692,6.818 136.0252,7.024 135.9962,7.243 C135.9672,7.462 135.8592,7.64 135.6732,7.778 C135.4812,7.92 135.2762,7.973 135.0582,7.937 C134.8412,7.901 134.6592,7.785 134.5132,7.587 C134.3742,7.399 134.3202,7.195 134.3482,6.974 C134.3782,6.753 134.4842,6.574 134.6672,6.439 C134.8532,6.3 135.0582,6.249 135.2802,6.284 C135.5022,6.32 135.6832,6.434 135.8272,6.626" id="Fill-106" fill="#FEFEFE"></path>
            <polygon id="Fill-108" fill="#FEFEFE" points="132.0937 5.4688 133.1877 4.2118 133.1867 6.4178 133.3737 6.5818 134.7817 4.9618 134.5647 4.7728 133.4807 6.0188 133.4827 3.8308 133.2817 3.6578 131.8737 5.2768"></polygon>
            <path d="M130.8789,4.6792 L131.5119,5.0302 L132.5539,3.1582 L131.9599,2.8282 C131.8859,2.7872 131.8219,2.7532 131.7689,2.7252 C131.7009,2.6912 131.6499,2.6672 131.6129,2.6542 C131.5489,2.6302 131.4749,2.6132 131.3889,2.6012 C131.2419,2.5802 131.0989,2.5892 130.9569,2.6272 C130.8189,2.6642 130.6939,2.7272 130.5829,2.8142 C130.4709,2.9022 130.3799,3.0082 130.3099,3.1342 C130.2119,3.3092 130.1659,3.4952 130.1709,3.6932 C130.1769,3.8902 130.2319,4.0682 130.3369,4.2272 C130.4429,4.3872 130.6239,4.5372 130.8789,4.6792 M131.0619,2.9052 C131.1249,2.8862 131.1909,2.8772 131.2549,2.8772 C131.3199,2.8762 131.3959,2.8872 131.4809,2.9102 C131.5649,2.9332 131.6729,2.9822 131.8089,3.0572 L132.1519,3.2472 L131.3749,4.6422 L131.0399,4.4552 C130.9109,4.3842 130.8199,4.3272 130.7689,4.2852 C130.7149,4.2422 130.6649,4.1882 130.6169,4.1222 C130.5689,4.0552 130.5329,3.9842 130.5099,3.9092 C130.4439,3.7062 130.4679,3.5042 130.5799,3.3032 C130.6929,3.0982 130.8549,2.9652 131.0619,2.9052" id="Fill-109" fill="#FEFEFE"></path>
            <polygon id="Fill-111" fill="#FEFEFE" points="128.8098 1.7635 129.6968 2.0685 129.4808 2.6995 128.6498 2.4135 128.5608 2.6735 129.3898 2.9595 129.1788 3.5775 128.3188 3.2825 128.2288 3.5405 129.3818 3.9365 130.0758 1.9105 128.8978 1.5055"></polygon>
            <polygon id="Fill-112" fill="#FEFEFE" points="126.2052 1.0003 125.8852 3.1223 126.1742 3.1653 126.4222 1.5173 127.6052 3.3813 127.8502 3.4183 128.1712 1.2963 127.8842 1.2533 127.6402 2.8853 126.4662 1.0393"></polygon>
            <g id="Group-123" transform="translate(119.000000, 0.929200)" fill="#FEFEFE">
                <path d="M4.5898,1.5234 C4.6728,1.5904 4.7698,1.6174 4.8768,1.6054 C4.9838,1.5934 5.0688,1.5464 5.1368,1.4614 C5.2038,1.3774 5.2328,1.2824 5.2198,1.1754 C5.2078,1.0694 5.1608,0.9824 5.0758,0.9144 C4.9918,0.8474 4.8978,0.8194 4.7908,0.8304 C4.6858,0.8424 4.5978,0.8904 4.5298,0.9744 C4.4618,1.0584 4.4358,1.1544 4.4458,1.2614 C4.4588,1.3684 4.5068,1.4564 4.5898,1.5234" id="Fill-113"></path>
                <path d="M5.5029,9.1753 C5.6649,10.0943 6.5409,10.7083 7.4609,10.5463 C8.3799,10.3843 8.9939,9.5073 8.8319,8.5883 C8.6699,7.6693 7.7929,7.0553 6.8739,7.2173 C5.9549,7.3793 5.3409,8.2563 5.5029,9.1753" id="Fill-115"></path>
                <path d="M2.5381,6.2646 C2.7001,7.1836 3.5761,7.7976 4.4961,7.6356 C5.4141,7.4736 6.0291,6.5966 5.8671,5.6776 C5.7041,4.7576 4.8281,4.1446 3.9091,4.3066 C2.9891,4.4686 2.3761,5.3456 2.5381,6.2646" id="Fill-117"></path>
                <path d="M6.916,15.4941 C7.542,15.3851 8.03,14.9551 8.244,14.4011 L9.759,18.6161 C9.759,18.6161 9.835,18.8311 9.948,18.9211 C10.062,19.0091 10.171,19.0541 10.545,18.9851 C11.456,18.8201 13.16,18.5131 14.127,18.3461 C14.553,18.2711 14.517,18.1791 14.533,18.0691 C14.561,17.8991 14.335,17.6081 14.335,17.6081 L8.949,11.0191 L6.941,10.7781 L7.471,12.2491 C7.131,12.0571 6.724,11.9771 6.309,12.0511 C5.881,12.1261 5.517,12.3511 5.262,12.6631 L5.203,7.6751 L3.149,8.7851 L0.24,18.9981 C0.24,18.9981 0.126,19.2501 0.23,19.3631 C0.336,19.4761 0.525,19.4271 0.525,19.4271 L4.888,18.6481 C4.888,18.6481 5.124,18.5851 5.211,18.5011 C5.349,18.3661 5.324,18.0891 5.324,18.0891 L5.287,14.9141 C5.677,15.3641 6.286,15.6051 6.916,15.4941" id="Fill-119"></path>
                <path d="M10.1855,21.6973 C10.2205,21.6033 10.1295,21.4013 10.1295,21.4013 L8.0955,16.1443 L5.9995,15.6733 L5.8785,22.1143 C5.8785,22.1143 5.8555,22.3603 5.9345,22.4343 C6.0095,22.5053 6.0515,22.5443 6.3415,22.4923 C7.2295,22.3343 9.1275,21.9963 9.9205,21.8563 C10.1445,21.8173 10.1575,21.7733 10.1855,21.6973" id="Fill-121"></path>
            </g>
        </g>
    </g>
</svg>